<?xml version="1.0" encoding="utf-8"?>
<!-- Generator: Adobe Illustrator 24.2.3, SVG Export Plug-In . SVG Version: 6.00 Build 0)  -->
<svg version="1.1" id="Layer_1" xmlns="http://www.w3.org/2000/svg" xmlns:xlink="http://www.w3.org/1999/xlink" x="0px" y="0px"
	 viewBox="0 0 512 512" style="enable-background:new 0 0 512 512;" xml:space="preserve">
<style type="text/css">
	.st0{fill:#222222;}
	.st1{fill:#EFCA9C;}
	.st2{fill:#E0B289;}
	.st3{fill:#C6C6C6;}
	.st4{fill:#4C4640;}
	.st5{fill:#DDDDDD;}
	.st6{fill:#EAEAEA;}
	.st7{fill:#FFFFFF;}
	.st8{fill:#BCB5AF;}
	.st9{fill:#FFA9A9;}
</style>
<rect class="st0" width="512" height="512"/>
<path class="st1" d="M441.2,273.1c-9.9-10.3-33.6-5.3-54.1,11.4c-3.8,3.1-7.3,6.5-10.4,10c-1,1-2,2.2-3.1,3.5
	c-19.3,24.6-80.8,79.6-83.3,81.8c-13.5,10.1-28.3,21-42.5,31.6c-26.8,19.9-50,37.1-54.2,40.5c-3.4,2.7-5.4,6.5-5.7,10.4
	c-0.2,3.2,0.9,6.3,3.1,8.6c2.3,2.4,5.4,3.6,8.9,3.6c3.4,0,7.3-1.1,11-3.4c2.4-1.5,23.1-18.7,56.6-46.8
	c12.6-10.6,25.7-21.5,37.2-31.1c0.1,0,0.1-0.1,0.2-0.1c0.6-0.4,61.6-41.3,94.5-58.1c7.8-2.9,15.6-7.5,22.8-13.3
	c13.6-11.1,22.5-24.9,23.2-36C445.7,280.6,444.3,276.2,441.2,273.1z"/>
<path class="st2" d="M383.9,335.2h-0.6c-4.4-0.6-8.2-2.5-11-5.3c-2.7-2.8-4.3-6.5-4.5-10.7c-0.1-2.2,1.6-4.1,3.8-4.2
	c2.2-0.1,4.1,1.6,4.2,3.8c0.1,2.2,0.9,4.1,2.3,5.6c1.5,1.6,3.7,2.6,6.3,3c2.2,0.3,3.7,2.3,3.4,4.5
	C387.5,333.8,385.8,335.2,383.9,335.2L383.9,335.2z"/>
<path class="st3" d="M312,454.2c-6.4-13.6-76.8-73.1-80.7-76.4C108.2,256.9,84.6,254.5,82.3,254.7c-0.7,0-1.3,0.4-1.8,1
	c-0.4,0.6-0.6,1.3-0.4,2c5.9,24.8,25.5,55.8,58.1,91.9c24.2,26.8,47,46.7,47.3,46.9c0.8,0.7,1.9,0.8,2.8,0.2
	c12.8-8,19.8-8.5,23.4-7.4c2.7,0.8,3.5,2.5,3.5,2.5c0.1,0.2,0.2,0.4,0.3,0.5c28.2,38.1,49.5,55.1,55.3,59.4
	c7.7,5.7,6.4,14.1,6.3,14.4c-0.2,0.9,0.2,1.9,1,2.4c6.3,4,12.4,5.7,17.7,5.7c5.6,0,10.2-1.8,13.3-4.4
	C313.7,465.8,314.7,460,312,454.2L312,454.2z"/>
<path class="st4" d="M312,454.2c-6.5-13.7-77.8-73.9-80.8-76.5c-0.8-0.7-1.9-0.7-2.8-0.2c-9.4,6.1-12.9,11.8-13,12.1
	c-0.5,0.8-0.4,1.8,0.1,2.6c28.2,38.1,49.5,55.1,55.3,59.4c7.7,5.7,6.4,14.1,6.3,14.4c-0.2,0.9,0.2,1.9,1,2.4
	c6.3,4,12.4,5.7,17.7,5.7c5.6,0,10.2-1.8,13.3-4.4C313.7,465.8,314.7,460,312,454.2L312,454.2z M244.6,405c-1.5,1.4-3.9,1.4-5.4,0
	s-1.5-3.6,0-5s3.9-1.4,5.4,0S246.1,403.7,244.6,405z M273.6,434.3c-1.5,1.4-3.9,1.4-5.4,0s-1.5-3.6,0-5s3.9-1.4,5.4,0
	S275.1,432.9,273.6,434.3z"/>
<path class="st5" d="M210.2,370c-0.8-1-2.3-1.2-3.3-0.4c-0.1,0.1-10.7,8.6-18.4,11.5c-1.2,0.5-1.8,1.8-1.4,3.1
	c0.4,0.9,1.3,1.5,2.2,1.5c0.3,0,0.6-0.1,0.8-0.2c8.4-3.2,19.2-11.9,19.7-12.3C210.9,372.5,211,371,210.2,370z"/>
<path class="st6" d="M442.6,209.7c-3.4-11.9-26.7-14.7-53.7-18l-3.8-0.5c-37.3-4.5-84.6-37.1-85-37.4l-0.6-0.3
	c-24.8-9.7-50.9-2.8-77.8,20.4c-21.1,18.2-36.6,41.4-43.2,51.3c-0.6,0.9-1.1,1.7-1.6,2.3c-5.1,7.5-5.1,20,0,37.2
	c4,13.4,11.1,29.3,19.1,42.4c14.6,24,59.8,67.6,61.7,69.5c0.6,0.5,1.3,0.8,2.1,0.8c0.6,0,1.2-0.2,1.8-0.6
	c37.4-28,61.3-55.6,74.8-73.9c12.1-16.4,18.1-28.1,20-32.1c7.2-1.4,37-8.8,70.4-35.9C439.6,224.6,444.6,216.6,442.6,209.7
	L442.6,209.7z"/>
<path class="st7" d="M290,119.8c13.6-7,23-21.2,23-37.6c0-23.3-19-42.3-42.3-42.3c-16.6,0-31.3,9.6-38.2,24.2
	c-7.9-14.7-23.3-24.2-40.4-24.2c-23.8,0-43.3,18.2-45.6,41.3c-8.4-7.6-19.2-11.8-30.7-11.8C90.5,69.5,70,90,70,115.3
	c0,13.2,5.8,25.8,15.6,34.5C74.2,156.8,67,169.4,67,183c0,21.5,17.5,39,39,39c14.7,0,27.6-8.2,34.2-20.3l64.6,10.8h0.5
	c1.1,0,2.1-0.6,2.6-1.6c14.2-26.3,38.4-39.7,56.2-46.4c19.5-7.3,35.8-8.2,36-8.2c0.9-0.1,1.8-0.6,2.3-1.4c0.5-0.8,0.6-1.8,0.3-2.7
	L290,119.8z"/>
<circle class="st4" cx="289.3" cy="209.6" r="13.9"/>
<path class="st4" d="M215,213.6c-0.3-0.5-7.7-11.5-20-21c-16.5-12.7-33.9-16.2-50.2-10.1c-16.8,6.3-25,23.7-19.4,41.3
	C129,235,137.3,243.9,149,249c7.3,3.2,15.7,4.8,25,4.8c7.9,0,16.5-1.2,25.5-3.5c1-0.3,1.7-1.1,1.8-2.1s-0.5-1.9-1.4-2.4
	c-3.7-1.7-7.6-4.3-8.4-5.6c0.5-0.3,1.9-0.8,5.3-1.2c1.1-0.1,2-1,2.1-2.1s-0.5-2.2-1.6-2.5c-5.8-2-11.6-5-12.8-6.6
	c0.8-0.5,3.9-1.9,14.5-2.4c0.8,0,1.5-0.5,1.9-1.1c0.4-0.7,0.5-1.5,0.2-2.2c-0.6-1.4-1.6-4.9-0.3-6.2c0.5-0.5,2.8-2,11.6,1.1
	c1,0.3,2,0,2.7-0.8C215.6,215.6,215.6,214.5,215,213.6L215,213.6z"/>
<path class="st3" d="M184.7,173.7c-0.5,0-1-0.1-1.4-0.4c-1.4-0.8-2-2.6-1.2-4c10.8-20,29.4-35.4,53.7-44.4
	c18.3-6.8,33.2-7.7,33.9-7.7c1.6-0.1,3,1.2,3.1,2.8c0.1,1.6-1.2,3-2.8,3.1c-0.1,0-14.8,0.9-32.3,7.4c-16,6-37.7,18-50.4,41.6
	C186.8,173.1,185.7,173.7,184.7,173.7L184.7,173.7z"/>
<path class="st8" d="M258.5,204.7h-0.3c-1.6-0.2-2.8-1.6-2.6-3.2c0.1-0.7,1.9-16,18-21.7c1.5-0.5,3.2,0.3,3.8,1.8
	c0.5,1.5-0.3,3.2-1.8,3.8c-12.7,4.5-14.1,16.6-14.1,16.8C261.3,203.6,260,204.7,258.5,204.7L258.5,204.7z M356.4,271
	c-11.9-0.1-23.8-2.1-34.5-7.1c-1.5-0.7-3.2-0.1-3.9,1.4c-0.7,1.5-0.1,3.2,1.4,3.9c10.7,5,22.5,7.1,34,7.5
	C354.8,274.2,355.8,272.3,356.4,271L356.4,271z"/>
<path class="st9" d="M417.2,195.7c-6.4,5.3-9.9,12.1-8.8,19c1.6,10.1,12.1,14.2,25.7,13.9c7.4-7.4,10.2-13.5,8.6-18.9
	C440.5,202.3,430.7,198.4,417.2,195.7L417.2,195.7z"/>
</svg>
