<svg  xmlns="http://www.w3.org/2000/svg" viewBox="0 0 512 512">
  <path d="M441.2 273.1c-9.9-10.3-33.6-5.3-54.1 11.4-3.8 3.1-7.3 6.5-10.4 10-1 1-2 2.2-3.1 3.5-19.3 24.6-80.8 79.6-83.3 81.8-13.5 10.1-28.3 21-42.5 31.6-26.8 19.9-50 37.1-54.2 40.5-3.4 2.7-5.4 6.5-5.7 10.4-.2 3.2.9 6.3 3.1 8.6 2.3 2.4 5.4 3.6 8.9 3.6 3.4 0 7.3-1.1 11-3.4 2.4-1.5 23.1-18.7 56.6-46.8 12.6-10.6 25.7-21.5 37.2-31.1.1 0 .1-.1.2-.1.6-.4 61.6-41.3 94.5-58.1 7.8-2.9 15.6-7.5 22.8-13.3 13.6-11.1 22.5-24.9 23.2-36 .3-5.1-1.1-9.5-4.2-12.6z" fill="#efca9c"/>
  <path d="M383.9 335.2h-.6c-4.4-.6-8.2-2.5-11-5.3-2.7-2.8-4.3-6.5-4.5-10.7-.1-2.2 1.6-4.1 3.8-4.2 2.2-.1 4.1 1.6 4.2 3.8.1 2.2.9 4.1 2.3 5.6 1.5 1.6 3.7 2.6 6.3 3 2.2.3 3.7 2.3 3.4 4.5-.3 1.9-2 3.3-3.9 3.3z" fill="#e0b289"/>
  <path d="M312 454.2c-6.4-13.6-76.8-73.1-80.7-76.4-123.1-120.9-146.7-123.3-149-123.1-.7 0-1.3.4-1.8 1-.4.6-.6 1.3-.4 2 5.9 24.8 25.5 55.8 58.1 91.9 24.2 26.8 47 46.7 47.3 46.9.8.7 1.9.8 2.8.2 12.8-8 19.8-8.5 23.4-7.4 2.7.8 3.5 2.5 3.5 2.5.1.2.2.4.3.5 28.2 38.1 49.5 55.1 55.3 59.4 7.7 5.7 6.4 14.1 6.3 14.4-.2.9.2 1.9 1 2.4 6.3 4 12.4 5.7 17.7 5.7 5.6 0 10.2-1.8 13.3-4.4 4.6-4 5.6-9.8 2.9-15.6z" fill="#c6c6c6"/>
  <path d="M312 454.2c-6.5-13.7-77.8-73.9-80.8-76.5-.8-.7-1.9-.7-2.8-.2-9.4 6.1-12.9 11.8-13 12.1-.5.8-.4 1.8.1 2.6 28.2 38.1 49.5 55.1 55.3 59.4 7.7 5.7 6.4 14.1 6.3 14.4-.2.9.2 1.9 1 2.4 6.3 4 12.4 5.7 17.7 5.7 5.6 0 10.2-1.8 13.3-4.4 4.6-3.9 5.6-9.7 2.9-15.5zM244.6 405c-1.5 1.4-3.9 1.4-5.4 0-1.5-1.4-1.5-3.6 0-5s3.9-1.4 5.4 0c1.5 1.4 1.5 3.7 0 5zm29 29.3c-1.5 1.4-3.9 1.4-5.4 0-1.5-1.4-1.5-3.6 0-5s3.9-1.4 5.4 0 1.5 3.6 0 5z" fill="#4c4640"/>
  <path d="M210.2 370c-.8-1-2.3-1.2-3.3-.4-.1.1-10.7 8.6-18.4 11.5-1.2.5-1.8 1.8-1.4 3.1.4.9 1.3 1.5 2.2 1.5.3 0 .6-.1.8-.2 8.4-3.2 19.2-11.9 19.7-12.3 1.1-.7 1.2-2.2.4-3.2z" fill="#ddd"/>
  <path d="M442.6 209.7c-3.4-11.9-26.7-14.7-53.7-18l-3.8-.5c-37.3-4.5-84.6-37.1-85-37.4l-.6-.3c-24.8-9.7-50.9-2.8-77.8 20.4-21.1 18.2-36.6 41.4-43.2 51.3-.6.9-1.1 1.7-1.6 2.3-5.1 7.5-5.1 20 0 37.2 4 13.4 11.1 29.3 19.1 42.4 14.6 24 59.8 67.6 61.7 69.5.6.5 1.3.8 2.1.8.6 0 1.2-.2 1.8-.6 37.4-28 61.3-55.6 74.8-73.9 12.1-16.4 18.1-28.1 20-32.1 7.2-1.4 37-8.8 70.4-35.9 12.8-10.3 17.8-18.3 15.8-25.2z" fill="#eaeaea"/>
  <path d="M290 119.8c13.6-7 23-21.2 23-37.6 0-23.3-19-42.3-42.3-42.3-16.6 0-31.3 9.6-38.2 24.2-7.9-14.7-23.3-24.2-40.4-24.2-23.8 0-43.3 18.2-45.6 41.3-8.4-7.6-19.2-11.8-30.7-11.8C90.5 69.5 70 90 70 115.3c0 13.2 5.8 25.8 15.6 34.5-11.4 7-18.6 19.6-18.6 33.2 0 21.5 17.5 39 39 39 14.7 0 27.6-8.2 34.2-20.3l64.6 10.8h.5c1.1 0 2.1-.6 2.6-1.6 14.2-26.3 38.4-39.7 56.2-46.4 19.5-7.3 35.8-8.2 36-8.2.9-.1 1.8-.6 2.3-1.4.5-.8.6-1.8.3-2.7L290 119.8z" fill="#fff"/>
  <circle cx="289.3" cy="209.6" r="13.9" fill="#4c4640"/>
  <path d="M215 213.6c-.3-.5-7.7-11.5-20-21-16.5-12.7-33.9-16.2-50.2-10.1-16.8 6.3-25 23.7-19.4 41.3C129 235 137.3 243.9 149 249c7.3 3.2 15.7 4.8 25 4.8 7.9 0 16.5-1.2 25.5-3.5 1-.3 1.7-1.1 1.8-2.1.1-1-.5-1.9-1.4-2.4-3.7-1.7-7.6-4.3-8.4-5.6.5-.3 1.9-.8 5.3-1.2 1.1-.1 2-1 2.1-2.1.1-1.1-.5-2.2-1.6-2.5-5.8-2-11.6-5-12.8-6.6.8-.5 3.9-1.9 14.5-2.4.8 0 1.5-.5 1.9-1.1.4-.7.5-1.5.2-2.2-.6-1.4-1.6-4.9-.3-6.2.5-.5 2.8-2 11.6 1.1 1 .3 2 0 2.7-.8.5-.6.5-1.7-.1-2.6z" fill="#4c4640"/>
  <path d="M184.7 173.7c-.5 0-1-.1-1.4-.4-1.4-.8-2-2.6-1.2-4 10.8-20 29.4-35.4 53.7-44.4 18.3-6.8 33.2-7.7 33.9-7.7 1.6-.1 3 1.2 3.1 2.8.1 1.6-1.2 3-2.8 3.1-.1 0-14.8.9-32.3 7.4-16 6-37.7 18-50.4 41.6-.5 1-1.6 1.6-2.6 1.6z" fill="#c6c6c6"/>
  <path d="M258.5 204.7h-.3c-1.6-.2-2.8-1.6-2.6-3.2.1-.7 1.9-16 18-21.7 1.5-.5 3.2.3 3.8 1.8.5 1.5-.3 3.2-1.8 3.8-12.7 4.5-14.1 16.6-14.1 16.8-.2 1.4-1.5 2.5-3 2.5zM356.4 271c-11.9-.1-23.8-2.1-34.5-7.1-1.5-.7-3.2-.1-3.9 1.4-.7 1.5-.1 3.2 1.4 3.9 10.7 5 22.5 7.1 34 7.5 1.4-2.5 2.4-4.4 3-5.7z" fill="#bcb5af"/>
  <path d="M417.2 195.7c-6.4 5.3-9.9 12.1-8.8 19 1.6 10.1 12.1 14.2 25.7 13.9 7.4-7.4 10.2-13.5 8.6-18.9-2.2-7.4-12-11.3-25.5-14z" fill="#ffa9a9"/>
</svg>
