<svg xmlns="http://www.w3.org/2000/svg" viewBox="0 0 511.9 79.2">
  <path d="M26 2.7V64c0 .6-.5 1.1-1.1 1.1H14.3c-.6 0-1.1-.5-1.1-1.1V15l-9.6 2.7c-.3.1-.6 0-.8-.1-.2-.1-.4-.4-.5-.7L0 8.2c-.1-.6.2-1.1.7-1.3l16.4-5.2c.1 0 .2-.1.3-.1h7.4c.7 0 1.2.5 1.2 1.1zm32.9-1.1h-7.4c-.1 0-.2 0-.3.1L34.8 6.9c-.6.2-.9.8-.7 1.3l2.3 8.7c.1.3.3.5.5.7s.6.2.8.1l9.6-2.7v49c0 .6.5 1.1 1.1 1.1H59c.6 0 1.1-.5 1.1-1.1V2.7c-.1-.6-.6-1.1-1.2-1.1zM97.2 17H85.9V5.5c0-.6-.5-1.1-1.1-1.1H74.3c-.6 0-1.1.5-1.1 1.1V17h-4.7c-.6 0-1.1.5-1.1 1.1v9c0 .6.5 1.1 1.1 1.1h4.7v23.1c0 5.1 1.4 8.9 4.1 11.3 2.4 2.1 5.8 3.2 10.2 3.2 3.9 0 7-.8 10-2.5.3-.2.6-.6.6-.9v-8.6c0-.4-.2-.7-.5-.9-.3-.2-.7-.2-1.1 0-2 1-3.9 1.5-6 1.5-3.2 0-4.6-1.4-4.6-4.7V28.3h11.3c.6 0 1.1-.5 1.1-1.1v-9c-.1-.7-.5-1.2-1.1-1.2zm53.4 0h-11c-.5 0-.9.3-1 .7L127.7 49l-11.9-31.3c-.2-.4-.6-.7-1-.7h-11.3c-.4 0-.7.2-.9.5-.2.3-.2.7-.1 1l18.9 45.6c-1.3 2.7-2.5 4.1-5.3 4.1-1.8 0-3.7-.5-5.7-1.6-.3-.1-.6-.2-.9-.1-.3.1-.5.3-.6.6l-3.6 7.8c-.2.5 0 1.1.5 1.4 3.7 2 7.2 2.9 11.4 2.9 7.8 0 12.3-3.8 16.1-13.6l18.3-47.2c.1-.3.1-.7-.1-1-.2-.2-.5-.4-.9-.4zm85 46.4c.2.3.3.8.1 1.1-.2.4-.6.6-1 .6H222c-.4 0-.7-.2-.9-.5l-14.6-20.8h-11.7v20.1c0 .6-.5 1.1-1.1 1.1H183c-.6 0-1.1-.5-1.1-1.1V3c0-.6.5-1.1 1.1-1.1h27.1c7.7 0 14 2.2 18.3 6.4 3.5 3.6 5.4 8.4 5.4 13.9v.2c0 5-1.4 9.3-4.3 12.7-2.3 2.8-5.5 4.9-9.5 6.3l15.6 22zm-40.9-31.2h14.6c7.1 0 11.4-3.5 11.4-9.1v-.2c0-7.8-7.2-9-11.5-9h-14.5v18.3zm84.3-8.4c3.7 4.6 5.8 11 5.8 18 0 .9-.1 1.8-.2 2.8v.2c0 .6-.5 1-1.1 1h-32.4c1.4 5.9 5.8 9.5 11.9 9.5 4.5 0 7.9-1.5 11.7-5.2.4-.4 1.1-.4 1.5 0l6.2 5.5c.4.4.5 1.1.1 1.5-5 6-11.6 9-19.6 9-14.3 0-24.6-10.5-24.6-24.9V41c0-6.7 2.3-13 6.6-17.6 4.4-4.8 10.4-7.4 16.9-7.4 7.1 0 13.1 2.7 17.2 7.8zm-28 12.9h21c-.9-5-4-9.9-10.4-9.9-5.3 0-9.4 3.9-10.6 9.9zm77.7 12.7c-.2-.2-.5-.3-.8-.3-.3 0-.6.1-.8.3-3.6 3.7-7 5.3-11.1 5.3-3.6 0-6.8-1.4-9.1-3.9s-3.6-5.9-3.6-9.7v-.2c0-7.6 5.4-13.5 12.2-13.5 3.1 0 6.5.7 11 5.4.2.2.5.3.8.3.3 0 .6-.1.8-.3l6.6-7c.4-.4.4-1.1 0-1.5-5.3-5.7-11.2-8.3-19.1-8.3-14 0-25 11-25 25.1v.2c0 13.9 10.9 24.8 24.8 24.8 4.4 0 8.2-.8 11.5-2.5 2.8-1.4 5.4-3.5 8-6.4.4-.4.4-1.1 0-1.5l-6.2-6.3zM355.4 0h-11.3c-.6 0-1.1.5-1.1 1.1v10c0 .6.5 1.1 1.1 1.1h11.3c.6 0 1.1-.5 1.1-1.1v-10c0-.7-.5-1.1-1.1-1.1zm-.3 17h-10.5c-.6 0-1.1.5-1.1 1.1V64c0 .6.5 1.1 1.1 1.1h10.5c.6 0 1.1-.5 1.1-1.1V18.1c0-.6-.5-1.1-1.1-1.1zm53.8 5.5c4.5 4.6 6.9 11 6.9 18.4v.2c0 7.4-2.4 13.8-6.9 18.4-4.1 4.2-9.6 6.5-15.5 6.5-5.8 0-10.6-2-14.6-6.2v18.1c0 .6-.5 1.1-1.1 1.1h-10.5c-.6 0-1.1-.5-1.1-1.1V18.1c0-.6.5-1.1 1.1-1.1h10.5c.6 0 1.1.5 1.1 1.1v4.5c4-4.4 8.8-6.6 14.6-6.6 5.9 0 11.4 2.3 15.5 6.5zm-9.5 8.5c-2.2-2.4-5.2-3.7-8.4-3.7s-6.3 1.3-8.6 3.7c-2.4 2.5-3.7 6-3.7 9.9v.2c0 3.9 1.3 7.4 3.7 9.9 2.3 2.4 5.3 3.7 8.6 3.7s6.3-1.3 8.5-3.6c2.3-2.5 3.6-5.9 3.6-10v-.2c-.1-3.9-1.4-7.4-3.7-9.9zm63.6-7.2c3.7 4.6 5.8 11 5.8 18 0 .9-.1 1.8-.2 2.8v.2c0 .6-.5 1-1.1 1H435c1.4 5.9 5.8 9.5 11.9 9.5 4.5 0 7.9-1.5 11.7-5.2.4-.4 1.1-.4 1.5 0l6.2 5.5c.4.4.5 1.1.1 1.5-5 6-11.6 9-19.6 9-14.3 0-24.6-10.5-24.6-24.9V41c0-6.7 2.3-13 6.6-17.6 4.4-4.8 10.4-7.4 16.9-7.4 7 0 13 2.7 17.3 7.8zm-28.2 12.9h21c-.9-5-4-9.9-10.4-9.9-5.3 0-9.3 3.9-10.6 9.9zm72.2 3.7c-2.9-2.2-6.5-3.5-10-4.5l-.9-.3c-4.5-1.4-8.7-2.8-8.7-5.2v-.2c0-2.1 2.1-3.4 5.3-3.4 3.5 0 8 1.5 12.4 4.2.3.2.6.2.8.1.3-.1.5-.3.7-.5l4.2-7.5c.3-.5.1-1.1-.4-1.4-5.1-3.4-11.6-5.4-17.5-5.4-10.3 0-17.4 6.2-17.4 15.1v.2c0 10.2 9.8 13 15.1 14.5.4.1.7.2 1.1.3 5.2 1.6 8.4 2.7 8.4 5.1v.2c0 1.2-.6 3.9-6 3.9-4.6 0-9.7-1.9-14.4-5.4-.2-.2-.5-.2-.8-.2-.3.1-.6.2-.7.5l-4.7 7.1c-.3.5-.2 1.1.2 1.5 5.7 4.5 13.1 7.1 20.1 7.1 5.2 0 9.6-1.3 12.8-3.8 3.5-2.7 5.4-6.8 5.4-11.7v-.2c.1-4.3-1.6-7.6-5-10.1z" fill="#fff"/>
  <circle cx="163.8" cy="37.3" r="6" fill="#ffa9a9"/>
</svg>