<?xml version="1.0" encoding="utf-8"?>
<!-- Generator: Adobe Illustrator 24.2.3, SVG Export Plug-In . SVG Version: 6.00 Build 0)  -->
<svg version="1.1" id="Layer_1" xmlns="http://www.w3.org/2000/svg" xmlns:xlink="http://www.w3.org/1999/xlink" x="0px" y="0px"
	 viewBox="0 0 445 512" style="enable-background:new 0 0 445 512;" xml:space="preserve">
<style type="text/css">
	.st0{fill:#EFCA9C;}
	.st1{fill:#E0B289;}
	.st2{fill:#C6C6C6;}
	.st3{fill:#4C4640;}
	.st4{fill:#DDDDDD;}
	.st5{fill:#EAEAEA;}
	.st6{fill:#FFFFFF;}
	.st7{fill:#BCB5AF;}
	.st8{fill:#FFA9A9;}
</style>
<g>
	<path class="st0" d="M440,274.7c-11.6-12.1-39.5-6.2-63.6,13.4c-4.5,3.6-8.6,7.6-12.2,11.8c-1.2,1.2-2.4,2.6-3.6,4.1
		c-22.7,28.9-95,93.6-98,96.2c-15.9,11.9-33.3,24.7-50,37.2c-31.5,23.4-58.8,43.6-63.7,47.6c-4,3.2-6.3,7.6-6.7,12.2
		c-0.2,3.8,1.1,7.4,3.6,10.1c2.7,2.8,6.3,4.2,10.5,4.2c4,0,8.6-1.3,12.9-4c2.8-1.8,27.2-22,66.6-55c14.8-12.5,30.2-25.3,43.7-36.6
		c0.1,0,0.1-0.1,0.2-0.1c0.7-0.5,72.4-48.6,111.1-68.3c9.2-3.4,18.3-8.8,26.8-15.6c16-13.1,26.5-29.3,27.3-42.3
		C445.3,283.5,443.7,278.3,440,274.7z"/>
	<path class="st1" d="M372.6,347.7h-0.7c-5.2-0.7-9.6-2.9-12.9-6.2c-3.2-3.3-5.1-7.6-5.3-12.6c-0.1-2.6,1.9-4.8,4.5-4.9
		c2.6-0.1,4.8,1.9,4.9,4.5c0.1,2.6,1.1,4.8,2.7,6.6c1.8,1.9,4.4,3.1,7.4,3.5c2.6,0.4,4.4,2.7,4,5.3
		C376.9,346.1,374.9,347.7,372.6,347.7L372.6,347.7z"/>
	<path class="st2" d="M288.1,487.6c-7.5-16-90.3-86-94.9-89.8C48.4,255.6,20.7,252.8,18,253.1c-0.8,0-1.5,0.5-2.1,1.2
		c-0.5,0.7-0.7,1.5-0.5,2.4c6.9,29.2,30,65.6,68.3,108.1c28.5,31.5,55.3,54.9,55.6,55.1c0.9,0.8,2.2,0.9,3.3,0.2
		c15.1-9.4,23.3-10,27.5-8.7c3.2,0.9,4.1,2.9,4.1,2.9c0.1,0.2,0.2,0.5,0.4,0.6c33.2,44.8,58.2,64.8,65,69.8
		c9.1,6.7,7.5,16.6,7.4,16.9c-0.2,1.1,0.2,2.2,1.2,2.8c7.4,4.7,14.6,6.7,20.8,6.7c6.6,0,12-2.1,15.6-5.2
		C290.1,501.3,291.3,494.5,288.1,487.6L288.1,487.6z"/>
	<path class="st3" d="M288.1,487.6c-7.6-16.1-91.5-86.9-95-90c-0.9-0.8-2.2-0.8-3.3-0.2c-11.1,7.2-15.2,13.9-15.3,14.2
		c-0.6,0.9-0.5,2.1,0.1,3.1c33.2,44.8,58.2,64.8,65,69.8c9.1,6.7,7.5,16.6,7.4,16.9c-0.2,1.1,0.2,2.2,1.2,2.8
		c7.4,4.7,14.6,6.7,20.8,6.7c6.6,0,12-2.1,15.6-5.2C290.1,501.3,291.3,494.5,288.1,487.6L288.1,487.6z M208.8,429.8
		c-1.8,1.6-4.6,1.6-6.3,0c-1.8-1.6-1.8-4.2,0-5.9c1.8-1.6,4.6-1.6,6.3,0C210.6,425.6,210.6,428.3,208.8,429.8z M242.9,464.2
		c-1.8,1.6-4.6,1.6-6.3,0c-1.8-1.6-1.8-4.2,0-5.9c1.8-1.6,4.6-1.6,6.3,0C244.7,460,244.7,462.6,242.9,464.2z"/>
	<path class="st4" d="M168.4,388.6c-0.9-1.2-2.7-1.4-3.9-0.5c-0.1,0.1-12.6,10.1-21.6,13.5c-1.4,0.6-2.1,2.1-1.6,3.6
		c0.5,1.1,1.5,1.8,2.6,1.8c0.4,0,0.7-0.1,0.9-0.2c9.9-3.8,22.6-14,23.2-14.5C169.2,391.6,169.3,389.8,168.4,388.6z"/>
	<path class="st5" d="M441.7,200.1c-4-14-31.4-17.3-63.1-21.2l-4.5-0.6c-43.9-5.3-99.5-43.6-99.9-44l-0.7-0.4
		c-29.2-11.4-59.9-3.3-91.5,24c-24.8,21.4-43,48.7-50.8,60.3c-0.7,1.1-1.3,2-1.9,2.7c-6,8.8-6,23.5,0,43.7
		c4.7,15.8,13.1,34.5,22.5,49.9c17.2,28.2,70.3,79.5,72.6,81.7c0.7,0.6,1.5,0.9,2.5,0.9c0.7,0,1.4-0.2,2.1-0.7
		c44-32.9,72.1-65.4,88-86.9c14.2-19.3,21.3-33,23.5-37.7c8.5-1.6,43.5-10.3,82.8-42.2C438.1,217.7,444,208.3,441.7,200.1
		L441.7,200.1z"/>
	<path class="st6" d="M262.2,94.4c16-8.2,27-24.9,27-44.2c0-27.4-22.3-49.7-49.7-49.7c-19.5,0-36.8,11.3-44.9,28.5
		c-9.3-17.3-27.4-28.5-47.5-28.5c-28,0-50.9,21.4-53.6,48.6c-9.9-8.9-22.6-13.9-36.1-13.9c-29.7,0.1-53.9,24.2-53.9,54
		c0,15.5,6.8,30.3,18.3,40.6c-13.4,8.2-21.9,23-21.9,39c0,25.3,20.6,45.9,45.9,45.9c17.3,0,32.5-9.6,40.2-23.9l76,12.7h0.6
		c1.3,0,2.5-0.7,3.1-1.9c16.7-30.9,45.2-46.7,66.1-54.6c22.9-8.6,42.1-9.6,42.3-9.6c1.1-0.1,2.1-0.7,2.7-1.6
		c0.6-0.9,0.7-2.1,0.4-3.2L262.2,94.4z"/>
	<circle class="st3" cx="261.4" cy="200" r="16.3"/>
	<path class="st3" d="M174,204.7c-0.4-0.6-9.1-13.5-23.5-24.7c-19.4-14.9-39.9-19-59-11.9c-19.8,7.4-29.4,27.9-22.8,48.6
		c4.2,13.2,14,23.6,27.8,29.6c8.6,3.8,18.5,5.6,29.4,5.6c9.3,0,19.4-1.4,30-4.1c1.2-0.4,2-1.3,2.1-2.5c0.1-1.2-0.6-2.2-1.6-2.8
		c-4.4-2-8.9-5.1-9.9-6.6c0.6-0.4,2.2-0.9,6.2-1.4c1.3-0.1,2.4-1.2,2.5-2.5c0.1-1.3-0.6-2.6-1.9-2.9c-6.8-2.4-13.6-5.9-15.1-7.8
		c0.9-0.6,4.6-2.2,17.1-2.8c0.9,0,1.8-0.6,2.2-1.3c0.5-0.8,0.6-1.8,0.2-2.6c-0.7-1.6-1.9-5.8-0.4-7.3c0.6-0.6,3.3-2.4,13.6,1.3
		c1.2,0.4,2.4,0,3.2-0.9C174.7,207.1,174.7,205.8,174,204.7L174,204.7z"/>
	<path class="st2" d="M138.4,157.8c-0.6,0-1.2-0.1-1.6-0.5c-1.6-0.9-2.4-3.1-1.4-4.7c12.7-23.5,34.6-41.6,63.1-52.2
		c21.5-8,39-9.1,39.9-9.1c1.9-0.1,3.5,1.4,3.6,3.3c0.1,1.9-1.4,3.5-3.3,3.6c-0.1,0-17.4,1.1-38,8.7c-18.8,7.1-44.3,21.2-59.3,48.9
		C140.9,157.1,139.6,157.8,138.4,157.8L138.4,157.8z"/>
	<path class="st7" d="M225.2,194.3h-0.4c-1.9-0.2-3.3-1.9-3.1-3.8c0.1-0.8,2.2-18.8,21.2-25.5c1.8-0.6,3.8,0.4,4.5,2.1
		c0.6,1.8-0.4,3.8-2.1,4.5c-14.9,5.3-16.6,19.5-16.6,19.8C228.5,193,226.9,194.3,225.2,194.3L225.2,194.3z M340.3,272.2
		c-14-0.1-28-2.5-40.6-8.3c-1.8-0.8-3.8-0.1-4.6,1.6c-0.8,1.8-0.1,3.8,1.6,4.6c12.6,5.9,26.5,8.3,40,8.8
		C338.4,276,339.6,273.8,340.3,272.2L340.3,272.2z"/>
	<path class="st8" d="M411.8,183.7c-7.5,6.2-11.6,14.2-10.3,22.3c1.9,11.9,14.2,16.7,30.2,16.3c8.7-8.7,12-15.9,10.1-22.2
		C439.2,191.4,427.7,186.9,411.8,183.7L411.8,183.7z"/>
</g>
</svg>
